<?xml version="1.0" encoding="UTF-8" standalone="no"?>
<!-- Created with Inkscape (http://www.inkscape.org/) -->

<svg
   xmlns:dc="http://purl.org/dc/elements/1.1/"
   xmlns:cc="http://creativecommons.org/ns#"
   xmlns:rdf="http://www.w3.org/1999/02/22-rdf-syntax-ns#"
   xmlns:svg="http://www.w3.org/2000/svg"
   xmlns="http://www.w3.org/2000/svg"
   xmlns:sodipodi="http://sodipodi.sourceforge.net/DTD/sodipodi-0.dtd"
   xmlns:inkscape="http://www.inkscape.org/namespaces/inkscape"
   width="56.74622mm"
   height="56.74622mm"
   viewBox="0 0 56.74622 56.74622"
   version="1.1"
   id="svg8"
   inkscape:version="0.92.4 (5da689c313, 2019-01-14)"
   sodipodi:docname="logo.svg">
  <defs
     id="defs2" />
  <sodipodi:namedview
     id="base"
     pagecolor="#ffffff"
     bordercolor="#666666"
     borderopacity="1.0"
     inkscape:pageopacity="0.0"
     inkscape:pageshadow="2"
     inkscape:zoom="5.6568543"
     inkscape:cx="97.331073"
     inkscape:cy="88.726218"
     inkscape:document-units="mm"
     inkscape:current-layer="layer1"
     showgrid="false"
     showguides="false"
     inkscape:guide-bbox="true"
     inkscape:window-width="1920"
     inkscape:window-height="1017"
     inkscape:window-x="1912"
     inkscape:window-y="457"
     inkscape:window-maximized="1"
     fit-margin-top="0"
     fit-margin-left="0"
     fit-margin-right="0"
     fit-margin-bottom="0"
     showborder="false">
    <sodipodi:guide
       position="19.287811,3.3003776"
       orientation="0,1"
       id="guide815"
       inkscape:locked="false" />
    <sodipodi:guide
       position="13.523674,12.749788"
       orientation="0,1"
       id="guide819"
       inkscape:locked="false" />
    <sodipodi:guide
       position="14.090638,23.805587"
       orientation="0,1"
       id="guide823"
       inkscape:locked="false" />
    <sodipodi:guide
       position="14.812246,37.379907"
       orientation="1,0"
       id="guide847"
       inkscape:locked="false" />
    <sodipodi:guide
       position="14.812246,37.379907"
       orientation="0,1"
       id="guide851"
       inkscape:locked="false" />
    <sodipodi:guide
       position="14.812245,30.056367"
       orientation="0,1"
       id="guide924"
       inkscape:locked="false" />
    <sodipodi:guide
       position="16.391568,30.056367"
       orientation="1,0"
       id="guide928"
       inkscape:locked="false" />
    <sodipodi:guide
       position="13.249641,30.056367"
       orientation="1,0"
       id="guide930"
       inkscape:locked="false" />
  </sodipodi:namedview>
  <metadata
     id="metadata5">
    <rdf:RDF>
      <cc:Work
         rdf:about="">
        <dc:format>image/svg+xml</dc:format>
        <dc:type
           rdf:resource="http://purl.org/dc/dcmitype/StillImage" />
        <dc:title></dc:title>
      </cc:Work>
    </rdf:RDF>
  </metadata>
  <g
     inkscape:label="Layer 1"
     inkscape:groupmode="layer"
     id="layer1"
     transform="translate(-39.865461,-87.449987)">
    <circle
       style="opacity:1;fill:#f2f2f2;fill-opacity:1;stroke:none;stroke-width:0.76500005;stroke-linecap:square;stroke-linejoin:miter;stroke-miterlimit:4;stroke-dasharray:none;stroke-opacity:1;paint-order:markers fill stroke"
       id="path873"
       r="28.37311"
       cy="115.8231"
       cx="68.238571" />
    <g
       id="g1000">
      <g
         id="g991">
        <path
           style="fill:#ff2a2a;fill-opacity:1;stroke:#ff2a2a;stroke-width:0.67844689;stroke-linecap:butt;stroke-linejoin:miter;stroke-miterlimit:4;stroke-dasharray:none;stroke-opacity:1"
           d="M 61.641731,129.5923 49.659414,124.00421"
           id="path831"
           inkscape:connector-curvature="0" />
        <path
           style="fill:#ff2a2a;fill-opacity:1;stroke:#ff2a2a;stroke-width:0.67844689;stroke-linecap:butt;stroke-linejoin:miter;stroke-miterlimit:4;stroke-dasharray:none;stroke-opacity:1"
           d="m 47.713686,129.5923 11.998666,-5.58809"
           id="path833"
           inkscape:connector-curvature="0" />
        <path
           style="fill:#ff2a2a;fill-opacity:1;stroke:#ff2a2a;stroke-width:0.67844689;stroke-linecap:butt;stroke-linejoin:miter;stroke-miterlimit:4;stroke-dasharray:none;stroke-opacity:1"
           d="M 59.712352,124.00421 51.8934,117.46615"
           id="path835"
           inkscape:connector-curvature="0" />
        <path
           style="fill:#ff2a2a;fill-opacity:1;stroke:#ff2a2a;stroke-width:0.67844689;stroke-linecap:butt;stroke-linejoin:miter;stroke-miterlimit:4;stroke-dasharray:none;stroke-opacity:1"
           d="m 57.478366,117.46615 -7.818952,6.53806"
           id="path839"
           inkscape:connector-curvature="0" />
        <path
           style="fill:#ff2a2a;fill-opacity:1;stroke:#ff2a2a;stroke-width:0.67844689;stroke-linecap:butt;stroke-linejoin:miter;stroke-miterlimit:4;stroke-dasharray:none;stroke-opacity:1"
           d="m 51.8934,117.46615 h 5.584966"
           id="path841"
           inkscape:connector-curvature="0" />
      </g>
      <path
         sodipodi:nodetypes="ccccc"
         inkscape:connector-curvature="0"
         id="path817"
         d="m 47.713686,130.49578 1.919406,-5.82742 3.482011,-10.52852 m 3.141927,0 5.384701,16.35594"
         style="fill:none;stroke:#1a1a1a;stroke-width:1.03319037;stroke-linecap:butt;stroke-linejoin:miter;stroke-miterlimit:4;stroke-dasharray:none;stroke-opacity:1" />
    </g>
    <rect
       style="opacity:1;fill:#1a1a1a;fill-opacity:1;stroke:none;stroke-width:0.76499993;stroke-linecap:square;stroke-linejoin:miter;stroke-miterlimit:4;stroke-dasharray:none;stroke-opacity:1;paint-order:markers fill stroke"
       id="rect893"
       width="17.544718"
       height="12.81043"
       x="75.371117"
       y="108.44975" />
    <path
       style="fill:none;stroke:#00ff00;stroke-width:0.26458332px;stroke-linecap:butt;stroke-linejoin:miter;stroke-opacity:1"
       d="m 77.119701,111.79061 0.985442,-0.77642 -0.985442,-0.77643"
       id="path895"
       inkscape:connector-curvature="0"
       sodipodi:nodetypes="ccc" />
    <g
       id="g1018"
       transform="translate(1.380888e-5)">
      <g
         transform="translate(0.04810165,-0.10725403)"
         id="g1004">
        <path
           style="opacity:1;fill:#ffffff;fill-opacity:1;stroke:#ffffff;stroke-width:0.78500003;stroke-linecap:square;stroke-linejoin:miter;stroke-miterlimit:2;stroke-dasharray:none;stroke-opacity:1;paint-order:markers fill stroke"
           d="m 54.071528,113.4376 c -1.245246,-0.10867 -2.4246,-0.57243 -3.461142,-1.36102 -0.294489,-0.22405 -0.88523,-0.81022 -1.110475,-1.10188 -0.806542,-1.04438 -1.249336,-2.15167 -1.382516,-3.45725 -0.03415,-0.33484 -0.01423,-1.19174 0.0353,-1.51939 0.177895,-1.17641 0.653274,-2.26992 1.384649,-3.1851 0.234265,-0.29314 0.777483,-0.82427 1.085008,-1.06086 2.624471,-2.019116 6.296446,-1.786693 8.629349,0.54621 1.023321,1.02332 1.644652,2.27551 1.862524,3.75362 0.06358,0.43136 0.0574,1.35981 -0.01204,1.80992 -0.502428,3.25617 -3.250732,5.61717 -6.504458,5.58781 -0.237953,-0.002 -0.47474,-0.008 -0.526188,-0.0121 z"
           id="path984"
           inkscape:connector-curvature="0" />
        <circle
           r="7.2925901"
           cy="106.92356"
           cx="54.629604"
           id="circle853"
           style="opacity:1;fill:#ffffff;fill-opacity:1;stroke:#ff2a2a;stroke-width:1.48454201;stroke-linecap:square;stroke-linejoin:miter;stroke-miterlimit:2;stroke-dasharray:none;stroke-opacity:1;paint-order:markers fill stroke" />
      </g>
      <g
         id="g980">
        <circle
           style="opacity:1;fill:#1a1a1a;fill-opacity:1;stroke:#1a1a1a;stroke-width:2.96908402;stroke-linecap:square;stroke-linejoin:miter;stroke-miterlimit:2;stroke-dasharray:none;stroke-opacity:1;paint-order:markers fill stroke"
           id="path845"
           cx="54.677708"
           cy="106.81631"
           r="4.0669222" />
        <g
           id="g970">
          <circle
             style="opacity:1;fill:#ffffff;fill-opacity:1;stroke:none;stroke-width:2.96908402;stroke-linecap:square;stroke-linejoin:miter;stroke-miterlimit:2;stroke-dasharray:none;stroke-opacity:1;paint-order:markers fill stroke"
             id="circle855"
             cx="54.677708"
             cy="106.81631"
             r="2.3289764" />
          <g
             id="g954">
            <path
               style="fill:#ffffff;stroke:#ffffff;stroke-width:0.89072531;stroke-linecap:butt;stroke-linejoin:miter;stroke-miterlimit:4;stroke-dasharray:none;stroke-opacity:1"
               d="m 54.677702,106.81631 -5.497094,-3.17375"
               id="path857"
               inkscape:connector-curvature="0" />
            <path
               inkscape:connector-curvature="0"
               id="path859"
               d="m 54.677709,106.81631 5.497095,-3.17375"
               style="fill:#ffffff;stroke:#ffffff;stroke-width:0.89072531;stroke-linecap:butt;stroke-linejoin:miter;stroke-miterlimit:4;stroke-dasharray:none;stroke-opacity:1" />
            <path
               inkscape:connector-curvature="0"
               id="path861"
               d="m 54.677702,106.81631 -5.497094,3.17375"
               style="fill:#ffffff;stroke:#ffffff;stroke-width:0.89072531;stroke-linecap:butt;stroke-linejoin:miter;stroke-miterlimit:4;stroke-dasharray:none;stroke-opacity:1" />
            <path
               style="fill:#ffffff;stroke:#ffffff;stroke-width:0.89072531;stroke-linecap:butt;stroke-linejoin:miter;stroke-miterlimit:4;stroke-dasharray:none;stroke-opacity:1"
               d="m 54.677709,106.81631 5.497095,3.17375"
               id="path863"
               inkscape:connector-curvature="0" />
          </g>
        </g>
      </g>
    </g>
    <g
       id="g1100"
       transform="translate(-0.41681898,2.1559353)">
      <g
         id="g1058">
        <g
           aria-label="artist - title"
           style="font-style:normal;font-variant:normal;font-weight:normal;font-stretch:normal;font-size:2.66543221px;line-height:1.25;font-family:Arial;-inkscape-font-specification:Arial;letter-spacing:0px;word-spacing:0px;fill:#ff2a2a;fill-opacity:1;stroke:none;stroke-width:0.26458332"
           id="text920">
          <path
             d="m 80.603024,109.54794 q -0.130148,0.11063 -0.251186,0.15618 -0.119736,0.0455 -0.257693,0.0455 -0.227759,0 -0.350098,-0.11062 -0.122339,-0.11193 -0.122339,-0.28503 0,-0.10151 0.04555,-0.18481 0.04685,-0.0846 0.121037,-0.13535 0.07549,-0.0508 0.169193,-0.0768 0.06898,-0.0182 0.208237,-0.0351 0.283722,-0.0338 0.417775,-0.0807 0.0013,-0.0482 0.0013,-0.0612 0,-0.14316 -0.06637,-0.20173 -0.0898,-0.0794 -0.266804,-0.0794 -0.165288,0 -0.244678,0.0586 -0.07809,0.0573 -0.115832,0.20433 l -0.22906,-0.0312 q 0.03123,-0.14706 0.102817,-0.23687 0.07158,-0.0911 0.206935,-0.13925 0.135354,-0.0495 0.313657,-0.0495 0.177001,0 0.287627,0.0417 0.110626,0.0416 0.162685,0.10542 0.05206,0.0625 0.07288,0.15878 0.01171,0.0599 0.01171,0.21604 v 0.31236 q 0,0.32667 0.01432,0.41387 0.01562,0.0859 0.05987,0.16529 h -0.244679 q -0.03644,-0.0729 -0.04685,-0.1705 z m -0.01952,-0.52319 q -0.127545,0.0521 -0.382635,0.0885 -0.144465,0.0208 -0.204333,0.0469 -0.05987,0.026 -0.0924,0.0768 -0.03254,0.0495 -0.03254,0.11063 0,0.0937 0.07028,0.15617 0.07158,0.0625 0.208237,0.0625 0.135354,0 0.240774,-0.0586 0.10542,-0.0599 0.154876,-0.16269 0.03774,-0.0794 0.03774,-0.23426 z"
             style="fill:#ff2a2a;fill-opacity:1;stroke-width:0.26458332"
             id="path1020"
             inkscape:connector-curvature="0" />
          <path
             d="m 81.182183,109.71844 v -1.38218 h 0.21084 v 0.20954 q 0.08069,-0.14706 0.148369,-0.19392 0.06898,-0.0468 0.150971,-0.0468 0.118435,0 0.240774,0.0755 l -0.08069,0.21734 q -0.0859,-0.0508 -0.171796,-0.0508 -0.07679,0 -0.137957,0.0469 -0.06117,0.0456 -0.0872,0.12754 -0.03904,0.12495 -0.03904,0.27331 v 0.72363 z"
             style="fill:#ff2a2a;fill-opacity:1;stroke-width:0.26458332"
             id="path1022"
             inkscape:connector-curvature="0" />
          <path
             d="m 82.586481,109.5089 0.03384,0.20693 q -0.09891,0.0208 -0.177001,0.0208 -0.127545,0 -0.197825,-0.0404 -0.07028,-0.0403 -0.09891,-0.10542 -0.02863,-0.0664 -0.02863,-0.27721 v -0.79521 h -0.171796 v -0.18221 h 0.171796 v -0.34228 l 0.232965,-0.14056 v 0.48284 h 0.235568 v 0.18221 H 82.35092 v 0.80822 q 0,0.10022 0.01171,0.12885 0.01301,0.0286 0.04035,0.0456 0.02863,0.0169 0.08069,0.0169 0.03904,0 0.102817,-0.009 z"
             style="fill:#ff2a2a;fill-opacity:1;stroke-width:0.26458332"
             id="path1024"
             inkscape:connector-curvature="0" />
          <path
             d="m 82.815541,108.07987 v -0.2694 h 0.234267 v 0.2694 z m 0,1.63857 v -1.38218 h 0.234267 v 1.38218 z"
             style="fill:#ff2a2a;fill-opacity:1;stroke-width:0.26458332"
             id="path1026"
             inkscape:connector-curvature="0" />
          <path
             d="m 83.314008,109.30587 0.231664,-0.0364 q 0.01952,0.13925 0.108023,0.21344 0.0898,0.0742 0.249884,0.0742 0.161383,0 0.239472,-0.0651 0.07809,-0.0664 0.07809,-0.15488 0,-0.0794 -0.06898,-0.12494 -0.04816,-0.0312 -0.239473,-0.0794 -0.257693,-0.0651 -0.357907,-0.11193 -0.09891,-0.0482 -0.150972,-0.13145 -0.05076,-0.0846 -0.05076,-0.18611 0,-0.0924 0.04165,-0.17049 0.04295,-0.0794 0.115832,-0.13145 0.05466,-0.0404 0.148369,-0.0677 0.09501,-0.0286 0.20303,-0.0286 0.162686,0 0.285025,0.0468 0.12364,0.0469 0.182207,0.12755 0.05857,0.0794 0.08069,0.21344 l -0.229061,0.0312 q -0.01562,-0.10673 -0.0911,-0.16659 -0.07418,-0.0599 -0.21084,-0.0599 -0.161384,0 -0.230362,0.0534 -0.06898,0.0534 -0.06898,0.12494 0,0.0456 0.02863,0.082 0.02863,0.0377 0.0898,0.0625 0.03514,0.013 0.206935,0.0599 0.248583,0.0664 0.346194,0.10933 0.09891,0.0417 0.154876,0.12234 0.05596,0.0807 0.05596,0.20043 0,0.11713 -0.06898,0.22125 -0.06768,0.10281 -0.196524,0.16008 -0.128847,0.056 -0.291532,0.056 -0.269406,0 -0.411268,-0.11192 -0.140559,-0.11193 -0.179604,-0.33188 z"
             style="fill:#ff2a2a;fill-opacity:1;stroke-width:0.26458332"
             id="path1028"
             inkscape:connector-curvature="0" />
          <path
             d="m 85.251913,109.5089 0.03384,0.20693 q -0.09891,0.0208 -0.177001,0.0208 -0.127545,0 -0.197825,-0.0404 -0.07028,-0.0403 -0.09891,-0.10542 -0.02863,-0.0664 -0.02863,-0.27721 v -0.79521 h -0.171796 v -0.18221 h 0.171796 v -0.34228 l 0.232965,-0.14056 v 0.48284 h 0.235568 v 0.18221 h -0.235568 v 0.80822 q 0,0.10022 0.01171,0.12885 0.01301,0.0286 0.04035,0.0456 0.02863,0.0169 0.08069,0.0169 0.03904,0 0.102817,-0.009 z"
             style="fill:#ff2a2a;fill-opacity:1;stroke-width:0.26458332"
             id="path1030"
             inkscape:connector-curvature="0" />
          <path
             d="m 86.127809,109.14579 v -0.23557 h 0.719719 v 0.23557 z"
             style="fill:#ff2a2a;fill-opacity:1;stroke-width:0.26458332"
             id="path1032"
             inkscape:connector-curvature="0" />
          <path
             d="m 88.359848,109.5089 0.03384,0.20693 q -0.09891,0.0208 -0.177002,0.0208 -0.127545,0 -0.197825,-0.0404 -0.07028,-0.0403 -0.09891,-0.10542 -0.02863,-0.0664 -0.02863,-0.27721 v -0.79521 H 87.71952 v -0.18221 h 0.171795 v -0.34228 l 0.232965,-0.14056 v 0.48284 h 0.235568 v 0.18221 H 88.12428 v 0.80822 q 0,0.10022 0.01171,0.12885 0.01301,0.0286 0.04035,0.0456 0.02863,0.0169 0.08069,0.0169 0.03905,0 0.102817,-0.009 z"
             style="fill:#ff2a2a;fill-opacity:1;stroke-width:0.26458332"
             id="path1034"
             inkscape:connector-curvature="0" />
          <path
             d="m 88.588909,108.07987 v -0.2694 h 0.234266 v 0.2694 z m 0,1.63857 v -1.38218 h 0.234266 v 1.38218 z"
             style="fill:#ff2a2a;fill-opacity:1;stroke-width:0.26458332"
             id="path1036"
             inkscape:connector-curvature="0" />
          <path
             d="m 89.692564,109.5089 0.03384,0.20693 q -0.09891,0.0208 -0.177002,0.0208 -0.127545,0 -0.197825,-0.0404 -0.07028,-0.0403 -0.09891,-0.10542 -0.02863,-0.0664 -0.02863,-0.27721 v -0.79521 h -0.171795 v -0.18221 h 0.171795 v -0.34228 l 0.232965,-0.14056 v 0.48284 h 0.235568 v 0.18221 h -0.235568 v 0.80822 q 0,0.10022 0.01171,0.12885 0.01301,0.0286 0.04035,0.0456 0.02863,0.0169 0.08069,0.0169 0.03905,0 0.102817,-0.009 z"
             style="fill:#ff2a2a;fill-opacity:1;stroke-width:0.26458332"
             id="path1038"
             inkscape:connector-curvature="0" />
          <path
             d="m 89.915117,109.71844 v -1.90797 h 0.234267 v 1.90797 z"
             style="fill:#ff2a2a;fill-opacity:1;stroke-width:0.26458332"
             id="path1040"
             inkscape:connector-curvature="0" />
          <path
             d="m 91.459975,109.27333 0.242075,0.0299 q -0.05727,0.21215 -0.212141,0.32928 -0.154876,0.11713 -0.39565,0.11713 -0.303245,0 -0.481548,-0.18611 -0.177001,-0.18741 -0.177001,-0.5245 0,-0.34879 0.179604,-0.54141 0.179604,-0.19262 0.46593,-0.19262 0.277215,0 0.452915,0.18871 0.1757,0.18872 0.1757,0.53101 0,0.0208 -0.0013,0.0625 h -1.030773 q 0.01301,0.22776 0.128847,0.3488 0.115831,0.12103 0.288928,0.12103 0.128847,0 0.21995,-0.0677 0.0911,-0.0677 0.144465,-0.21605 z M 90.6908,108.8946 h 0.771778 q -0.01562,-0.1744 -0.0885,-0.2616 -0.111927,-0.13535 -0.29023,-0.13535 -0.161384,0 -0.27201,0.10802 -0.109324,0.10802 -0.121037,0.28893 z"
             style="fill:#ff2a2a;fill-opacity:1;stroke-width:0.26458332"
             id="path1042"
             inkscape:connector-curvature="0" />
        </g>
      </g>
    </g>
    <path
       style="opacity:1;fill:none;fill-opacity:1;stroke:#ff2a2a;stroke-width:1;stroke-linecap:square;stroke-linejoin:miter;stroke-miterlimit:2;stroke-dasharray:none;stroke-opacity:1;paint-order:markers fill stroke"
       id="circle1516"
       sodipodi:type="arc"
       sodipodi:cx="54.677719"
       sodipodi:cy="106.81631"
       sodipodi:rx="11.876263"
       sodipodi:ry="11.876263"
       sodipodi:start="5.9709148"
       sodipodi:end="0.76960159"
       d="m 65.979628,103.16768 a 11.876263,11.876263 0 0 1 -2.77252,11.91271"
       sodipodi:open="true" />
    <path
       id="circle1554"
       style="opacity:1;fill:none;fill-opacity:1;stroke:#ff2a2a;stroke-width:1;stroke-linecap:square;stroke-linejoin:miter;stroke-miterlimit:2;stroke-dasharray:none;stroke-opacity:1;paint-order:markers fill stroke"
       sodipodi:type="arc"
       sodipodi:cx="54.677723"
       sodipodi:cy="106.81631"
       sodipodi:rx="16.37418"
       sodipodi:ry="16.37418"
       sodipodi:start="5.890559"
       sodipodi:end="0.89734979"
       d="m 69.805949,100.55128 a 16.37418,16.37418 0 0 1 -4.915916,19.06434"
       sodipodi:open="true" />
  </g>
</svg>
